<svg aria-hidden="true" style="position:absolute;width:0;height:0;overflow:hidden" xmlns="http://www.w3.org/2000/svg">
  <defs>
    <symbol id="add" viewBox="0 0 32 32">
      <path stroke-linejoin="round" stroke-linecap="round" stroke-width="2" d="M9.333 16H16m0 0h6.667M16 16V9.333M16 16v6.667M28 16c0 6.627-5.373 12-12 12S4 22.627 4 16 9.373 4 16 4s12 5.373 12 12z"/>
    </symbol>
    <symbol id="burger" viewBox="0 0 32 32">
      <path stroke-linejoin="round" stroke-linecap="round" stroke-width="2.182" d="M5.527 9.455h15.055M5.527 16h7.855m-7.855 6.545h20.945"/>
    </symbol>
    <symbol id="check" viewBox="0 0 32 32">
      <path stroke-linejoin="round" stroke-linecap="round" stroke-width="2.667" d="m9.519 17.296 3.889 3.889 9.073-9.075M27.667 16c0 6.443-5.223 11.667-11.667 11.667S4.333 22.444 4.333 16C4.333 9.557 9.556 4.333 16 4.333S27.667 9.556 27.667 16z"/>
    </symbol>
    <symbol id="contact-us" viewBox="0 0 34 32">
      <path stroke-linecap="round" stroke-width="2.4" d="m6.133 9.333 8.267 6.2c.66.499 1.495.8 2.4.8s1.74-.301 2.41-.807l-.01.007 8.267-6.2m-20 16h18.666a2.667 2.667 0 0 0 2.667-2.666V9.333a2.667 2.667 0 0 0-2.667-2.666H7.467A2.667 2.667 0 0 0 4.8 9.333v13.334a2.667 2.667 0 0 0 2.667 2.666z"/>
    </symbol>
    <symbol id="email-footer" viewBox="0 0 32 32">
      <path stroke-linecap="round" stroke-width="2.4" d="m5.333 9.333 8.267 6.2c.66.499 1.495.8 2.4.8s1.74-.301 2.41-.807l-.01.007 8.267-6.2m-20 16h18.666A2.668 2.668 0 0 0 28 22.666V9.333a2.668 2.668 0 0 0-2.667-2.667H6.667A2.668 2.668 0 0 0 4 9.333v13.334a2.667 2.667 0 0 0 2.667 2.666z"/>
    </symbol>
    <symbol id="facebook" viewBox="0 0 33 32">
      <path d="M30.667 16c0 7.732-6.268 14-14 14s-14-6.268-14-14 6.268-14 14-14 14 6.268 14 14z"/>
      <path d="m21.88 20.281.623-3.951h-3.891v-2.564c0-1.08.543-2.136 2.285-2.136h1.769V8.266s-1.605-.267-3.14-.267c-3.205 0-5.299 1.893-5.299 5.319v3.012h-3.561v3.951h3.561v9.553a14.568 14.568 0 0 0 4.466-.011l-.082.011v-9.555h3.268z"/>
    </symbol>
    <symbol id="instagram" viewBox="0 0 33 32">
      <path d="M10.667 2h12a8 8 0 0 1 8 8v12a8 8 0 0 1-8 8h-12a8 8 0 0 1-8-8V10a8 8 0 0 1 8-8z"/>
      <path d="M23.667 10.5a1.5 1.5 0 0 1-3 0 1.5 1.5 0 0 1 3 0zM16.667 21a5 5 0 0 1 0-10 5 5 0 0 1 0 10zm0-2a3 3 0 1 0 0-6 3 3 0 1 0 0 6z"/>
      <path d="M6.667 15.6v.8c0 3.36 0 5.04.653 6.324l.016.033a6.041 6.041 0 0 0 2.607 2.589c1.284.653 2.964.653 6.324.653h.8c3.36 0 5.04 0 6.324-.655l.033-.016a6.04 6.04 0 0 0 2.589-2.606c.653-1.284.653-2.964.653-6.324v-.8c0-3.36 0-5.04-.655-6.324l-.016-.033a6.04 6.04 0 0 0-2.606-2.589c-1.284-.653-2.964-.653-6.324-.653h-.8c-3.36 0-5.04 0-6.324.653l-.033.016a6.041 6.041 0 0 0-2.589 2.607c-.653 1.284-.653 2.964-.653 6.324zm9.6-7.6h.8c1.713 0 2.877.001 3.777.075.877.072 1.325.201 1.639.361a4.035 4.035 0 0 1 1.738 1.726l.011.022c.16.313.289.76.36 1.639.075.9.076 2.064.076 3.777v.8c0 1.713-.001 2.877-.075 3.777-.072.877-.201 1.325-.361 1.639a4.035 4.035 0 0 1-1.726 1.738l-.022.011c-.313.16-.76.289-1.639.36-.9.076-2.064.076-3.777.076h-.8c-1.713 0-2.877-.001-3.777-.075-.877-.072-1.325-.201-1.639-.361a4.035 4.035 0 0 1-1.738-1.726l-.011-.022c-.16-.313-.289-.76-.36-1.639-.076-.9-.076-2.064-.076-3.777v-.8c0-1.713.001-2.877.075-3.777.072-.877.201-1.325.361-1.639a4.035 4.035 0 0 1 1.726-1.738l.022-.011c.313-.16.76-.289 1.639-.36C13.39 8 14.554 8 16.267 8z"/>
    </symbol>
    <symbol id="linkedin" viewBox="0 0 33 32">
      <path d="M16.667 2c7.732 0 14 6.268 14 14s-6.268 14-14 14-14-6.268-14-14 6.268-14 14-14z"/>
      <path d="M13.285 9.693c0 .933-.811 1.691-1.809 1.691-1 0-1.809-.757-1.809-1.692 0-.932.811-1.692 1.809-1.692 1 0 1.809.757 1.809 1.693zm-3.37 2.935h3.093V22H9.915v-9.372zm8.072 0h-3.093V22h3.093v-4.795c0-1.107.377-2.22 1.887-2.22 1.704 0 1.693 1.449 1.687 2.572-.011 1.467.013 2.964.013 4.443h3.093v-4.947c-.027-3.157-.849-4.613-3.557-4.613-1.608 0-2.604.731-3.123 1.391v-1.204z"/>
    </symbol>
    <symbol id="location-footer" viewBox="0 0 32 32">
      <path stroke-linejoin="round" stroke-linecap="round" stroke-width="2.4" d="M20 13.333a4 4 0 0 1-8 0 4 4 0 0 1 8 0z"/>
      <path stroke-linejoin="round" stroke-linecap="round" stroke-width="2.4" d="M25.333 13c0 7.501-9.333 15-9.333 15s-9.333-7.501-9.333-15c0-4.971 4.178-9 9.333-9s9.333 4.029 9.333 9z"/>
    </symbol>
    <symbol id="messaging" viewBox="0 0 32 32">
      <path stroke-linecap="round" stroke-width="2.667" d="m5.629 12.111 8.037 6.028c.642.485 1.453.778 2.333.778s1.691-.292 2.343-.785l-.01.007 8.037-6.027m-11.628-7.08-9.075 5.043a2.592 2.592 0 0 0-1.333 2.267v10.141a2.591 2.591 0 0 0 2.592 2.592h18.149a2.592 2.592 0 0 0 2.592-2.592V12.34c0-.941-.511-1.809-1.333-2.267l-9.075-5.04c-.363-.205-.797-.326-1.259-.326s-.896.121-1.272.333l.013-.007z"/>
    </symbol>
    <symbol id="phone-footer" viewBox="0 0 32 32">
      <path stroke-width="2.4" d="M17.125 24.208c2.214 1.117 4.811 1.93 7.843 2.301.917.112 1.699-.624 1.699-1.549v-2.378c0-.746-.511-1.373-1.202-1.55l-.011-.002-3.242-.811a1.591 1.591 0 0 0-1.52.421l-3.568 3.568zm0 0c-4.155-2.088-6.968-5.24-8.805-8.528m0 0c-1.422-2.511-2.429-5.449-2.843-8.574l-.013-.123c-.112-.898.618-1.648 1.522-1.648h2.368a1.6 1.6 0 0 1 1.566 1.274l.002.01.909 4.541a1.596 1.596 0 0 1-.437 1.446L8.32 15.678z"/>
    </symbol>
    <symbol id="play" viewBox="0 0 32 32">
      <path stroke-linejoin="round" stroke-linecap="round" stroke-width="2.4" d="M10.667 22.419V9.581a1.6 1.6 0 0 1 2.466-1.345l-.006-.004 10.085 6.418a1.6 1.6 0 0 1 .006 2.697l-.006.004-10.085 6.418a1.6 1.6 0 0 1-2.459-1.349z"/>
    </symbol>
    <symbol id="remove" viewBox="0 0 32 32">
      <path stroke-linejoin="round" stroke-linecap="round" stroke-width="2" d="M9.333 16h13.333M28 16c0 6.627-5.373 12-12 12S4 22.627 4 16 9.373 4 16 4s12 5.373 12 12z"/>
    </symbol>
    <symbol id="responsive" viewBox="0 0 32 32">
      <path stroke-linecap="round" stroke-width="2.667" d="M14.704 22.481h2.592m-5.073 5.186h7.555a4 4 0 0 0 4-4V8.334a4 4 0 0 0-4-4h-7.555a4 4 0 0 0-4 4v15.333a4 4 0 0 0 4 4z"/>
    </symbol>
    <symbol id="star" viewBox="0 0 33 32">
      <path d="M15.784 1.028a1.02 1.02 0 0 1 1.82-.006l.003.006 4.23 8.53c.148.294.428.504.76.553l.006.001 9.455 1.368a1.011 1.011 0 0 1 .562 1.727l-6.841 6.641a1.01 1.01 0 0 0-.292.902l-.001-.006L27.1 30.12a1.016 1.016 0 0 1-1.481 1.064l.005.003-8.456-4.427a1.018 1.018 0 0 0-.952.003l.006-.003-8.456 4.427a1.016 1.016 0 0 1-1.474-1.073l-.001.006 1.614-9.377a1.005 1.005 0 0 0-.292-.894L.772 13.208a1.013 1.013 0 0 1 .558-1.725l.006-.001 9.455-1.369a1.02 1.02 0 0 0 .763-.548l.003-.006 4.228-8.529z"/>
    </symbol>
    <symbol id="twitter" viewBox="0 0 33 32">
      <path d="M12.456 28c-3.236 0-6.251-.941-8.789-2.564 2.155.139 5.959-.195 8.324-2.451-3.56-.164-5.164-2.893-5.373-4.06.303.117 1.744.257 2.559-.069-4.093-1.027-4.721-4.619-4.581-5.715.767.536 2.069.723 2.581.676-3.813-2.729-2.443-6.835-1.768-7.72 2.737 3.791 6.84 5.92 11.915 6.04a5.729 5.729 0 0 1-.147-1.303v-.012a5.823 5.823 0 0 1 5.816-5.823c1.677 0 3.189.713 4.251 1.853 1.12-.263 2.808-.879 3.633-1.411-.416 1.493-1.711 2.739-2.493 3.2-.007-.016.007.016 0 0 .688-.104 2.549-.461 3.284-.96-.364.839-1.736 2.233-2.863 3.013.209 9.241-6.861 17.304-16.348 17.304z"/>
    </symbol>
  </defs>
</svg>
